<?xml version="1.0" encoding="UTF-8" standalone="no"?>
<svg
        xmlns:inkscape="http://www.inkscape.org/namespaces/inkscape"
        xmlns:sodipodi="http://sodipodi.sourceforge.net/DTD/sodipodi-0.dtd"
        xmlns:xlink="http://www.w3.org/1999/xlink"
        version="1.0"
        width="900.51965pt"
        height="89.178238pt"
        viewBox="0 0 900.51965 89.17824"
        preserveAspectRatio="xMidYMid meet"
        id="svg84"
        sodipodi:docname="logo.svg"
        inkscape:version="1.1 (c68e22c387, 2021-05-23)"
        xmlns="http://www.w3.org/2000/svg"
>
    <defs
            id="defs88">
        <linearGradient
                id="linearGradient38922"
                inkscape:swatch="gradient">
            <stop
                    style="stop-color:#de8cea;stop-opacity:1;"
                    offset="0"
                    id="stop38918"/>
            <stop
                    style="stop-color:#62a0ea;stop-opacity:0;"
                    offset="1"
                    id="stop38920"/>
        </linearGradient>
        <linearGradient
                id="linearGradient33070"
                inkscape:swatch="solid">
            <stop
                    style="stop-color:#62a0ea;stop-opacity:1;"
                    offset="0"
                    id="stop33068"/>
        </linearGradient>
        <linearGradient
                inkscape:collect="always"
                xlink:href="#linearGradient38922"
                id="linearGradient38953"
                gradientUnits="userSpaceOnUse"
                gradientTransform="translate(-36.621055,-259.51177)"
                x1="-79.228249"
                y1="4422.4468"
                x2="2876.647"
                y2="4422.4468"/>
    </defs>
    <sodipodi:namedview
            id="namedview86"
            pagecolor="#ffffff"
            bordercolor="#666666"
            borderopacity="1.0"
            inkscape:pageshadow="2"
            inkscape:pageopacity="0.0"
            inkscape:pagecheckerboard="0"
            inkscape:document-units="pt"
            showgrid="false"
            inkscape:snap-smooth-nodes="true"
            inkscape:zoom="0.97879858"
            inkscape:cx="395.38267"
            inkscape:cy="227.83033"
            inkscape:window-width="1440"
            inkscape:window-height="831"
            inkscape:window-x="0"
            inkscape:window-y="0"
            inkscape:window-maximized="1"
            inkscape:current-layer="g82"/>
    <metadata
            id="metadata2">
        Created by potrace 1.10, written by Peter Selinger 2001-2011
    </metadata>
    <g
            transform="matrix(0.1,0,0,-0.1,11.58493,460.97292)"
            fill="#000000"
            stroke="none"
            id="g82">
        <path
                d="m 8632.2288,4518.3732 c -13,-26 -20,-59 -31,-153 -6,-47 -15,-116 -21,-154 -12,-83 -5,-96 56,-96 38,0 45,4 58,29 9,16 20,46 25,67 5,22 20,82 34,134 13,52 27,107 31,123 3,15 13,27 21,27 8,0 15,9 15,20 0,19 -7,20 -90,20 -75,0 -91,-3 -98,-17 z"
                id="path6-9"
                style="fill:#e6a0ea;fill-opacity:1"/>
        <path
                d="m 3315.2288,4510.3732 c -5,-2 -28,-9 -51,-14 -53,-14 -127,-73 -159,-126 -49,-84 -69,-221 -44,-308 15,-56 63,-105 118,-120 37,-11 52,-22 77,-61 39,-59 72,-94 94,-101 16,-5 130,60 130,74 -1,15 -17,31 -43,40 -34,13 -36,47 -4,57 69,22 135,97 167,190 22,64 27,203 9,251 -17,46 -69,92 -123,108 -45,14 -145,19 -171,10 z m 101,-72 c 18,-24 17,-121 -1,-210 -43,-204 -127,-307 -163,-198 -10,31 -10,59 -2,132 16,133 54,233 104,275 27,22 45,22 62,1 z"
                id="path8-3"
                style="fill:#e6a0ea;fill-opacity:1"/>
        <path
                d="m 3754.2288,4494.3732 c -16,-27 -67,-303 -71,-389 -4,-82 -2,-98 14,-116 36,-41 83,-57 173,-58 97,0 148,14 204,57 49,39 70,90 102,241 13,67 31,150 39,185 16,76 12,93 -24,89 -31,-4 -46,-31 -60,-113 -51,-289 -81,-368 -145,-380 -63,-12 -116,18 -116,65 0,29 49,274 71,351 20,74 14,79 -90,79 -55,0 -92,-4 -97,-11 z"
                id="path10-6"
                style="fill:#e6a0ea;fill-opacity:1"/>
        <path
                d="m 4336.2288,4483.3732 c -8,-13 -19,-48 -25,-78 -17,-97 -70,-344 -81,-380 -5,-19 -10,-47 -10,-62 v -28 h 178 c 183,0 202,4 202,41 0,23 -20,29 -101,29 h -69 v 30 c 0,40 20,132 32,148 6,7 35,12 72,12 64,0 86,11 86,42 0,14 -11,18 -67,20 l -68,3 3,55 c 2,30 10,70 17,88 l 14,32 h 78 c 82,0 96,4 105,31 13,34 -12,39 -184,39 -163,0 -168,-1 -182,-22 z"
                id="path12-0"
                style="fill:#e6a0ea;fill-opacity:1"/>
        <path
                d="m 4798.2288,4499.3732 c -11,-18 -29,-83 -37,-130 -5,-27 -25,-125 -46,-219 -20,-93 -38,-179 -38,-190 -2,-19 4,-20 173,-20 170,0 176,1 232,27 57,28 111,83 140,143 27,54 41,179 28,238 -31,130 -66,149 -286,155 -89,2 -164,0 -166,-4 z m 257,-71 c 15,-14 16,-29 10,-102 -15,-189 -80,-331 -152,-331 -34,0 -37,19 -18,102 9,40 23,105 31,143 18,83 44,187 51,198 8,13 61,7 78,-10 z"
                id="path14-6"
                style="fill:#e6a0ea;fill-opacity:1"/>
        <path
                d="m 5397.2288,4498.3732 c -3,-5 -12,-42 -21,-83 -10,-41 -23,-102 -31,-135 -7,-33 -21,-96 -30,-140 -9,-44 -21,-96 -26,-116 -5,-20 -9,-48 -9,-63 v -26 h 180 c 171,0 180,1 190,21 20,36 -3,49 -86,49 -42,0 -76,5 -80,11 -3,6 1,37 9,68 9,31 19,68 22,84 5,26 7,27 73,27 74,0 88,6 94,35 3,18 -3,20 -65,23 -80,3 -85,9 -68,90 22,100 13,92 104,92 45,0 87,4 93,8 17,12 23,39 11,51 -13,13 -353,16 -360,4 z"
                id="path16-2"
                style="fill:#e6a0ea;fill-opacity:1"/>
        <path
                d="m 5852.2288,4493.3732 c -6,-6 -12,-20 -12,-30 0,-18 -17,-100 -42,-198 -6,-25 -14,-65 -19,-90 -11,-64 -35,-171 -42,-195 -14,-43 -1,-46 189,-43 l 179,3 3,33 3,32 h -63 c -35,0 -74,3 -86,7 -21,5 -23,10 -17,37 4,17 11,49 15,71 4,22 22,108 40,190 46,209 51,189 -50,193 -58,2 -89,-1 -98,-10 z"
                id="path18-6"
                style="fill:#e6a0ea;fill-opacity:1"/>
        <path
                d="m 6293.2288,4493.3732 c -6,-7 -16,-42 -23,-78 -6,-36 -16,-79 -21,-96 -5,-17 -14,-55 -19,-85 -5,-30 -21,-105 -34,-168 -14,-63 -23,-118 -20,-122 8,-13 172,-11 180,2 3,6 22,82 41,168 61,275 77,357 69,376 -7,20 -158,22 -173,3 z"
                id="path20-1"
                style="fill:#e6a0ea;fill-opacity:1"/>
        <path
                d="m 6552.2288,4497.3732 c -10,-7 -9,-61 3,-276 8,-148 18,-272 21,-277 3,-5 50,-9 105,-9 h 99 l 70,146 c 39,80 70,147 70,149 0,1 27,60 61,130 63,133 65,149 13,143 -27,-3 -36,-17 -117,-182 -58,-116 -92,-175 -99,-168 -5,5 -14,58 -19,118 -6,60 -13,136 -17,169 l -7,60 -85,3 c -47,1 -91,-2 -98,-6 z"
                id="path22-8"
                style="fill:#e6a0ea;fill-opacity:1"/>
        <path
                d="m 7116.2288,4489.3732 c -9,-8 -16,-28 -16,-42 0,-15 -5,-43 -11,-62 -5,-19 -14,-55 -19,-80 -4,-25 -22,-112 -39,-194 -18,-82 -29,-156 -27,-163 4,-11 42,-13 183,-11 l 178,3 v 30 30 l -72,3 c -40,2 -76,8 -81,15 -11,14 12,143 30,164 6,8 34,13 72,13 64,0 86,11 86,42 0,15 -9,18 -64,18 -36,0 -68,5 -71,11 -8,12 15,139 28,157 6,8 37,12 88,12 57,0 82,4 93,16 18,18 18,17 10,38 -9,24 -345,24 -368,0 z"
                id="path24-7"
                style="fill:#e6a0ea;fill-opacity:1"/>
        <path
                d="m 7571.2288,4487.3732 c -6,-10 -15,-44 -20,-73 -5,-30 -14,-72 -19,-94 -6,-22 -18,-76 -27,-120 -9,-44 -23,-108 -31,-142 -17,-77 -18,-123 -1,-124 6,0 44,0 82,1 82,1 89,7 105,89 21,114 25,126 43,129 9,2 19,-2 21,-10 7,-28 38,-125 53,-165 l 15,-43 h 89 c 104,0 104,-1 63,101 -36,91 -54,142 -54,156 0,6 18,24 39,40 66,47 91,110 71,181 -8,30 -20,47 -48,64 -34,21 -51,23 -203,26 -158,4 -168,3 -178,-16 z m 250,-52 c 45,-24 8,-166 -50,-189 -43,-18 -65,-8 -57,27 3,15 11,52 17,82 6,30 15,63 20,72 11,20 41,23 70,8 z"
                id="path26-9"
                style="fill:#e6a0ea;fill-opacity:1"/>
        <path
                d="m 8067.2288,4493.3732 c -2,-7 0,-24 6,-38 5,-14 13,-41 17,-60 4,-19 19,-80 34,-135 26,-96 26,-102 12,-160 -8,-33 -18,-84 -22,-112 l -7,-53 h 85 c 92,0 101,4 111,55 32,157 32,158 141,325 59,89 105,169 102,176 -8,20 -60,17 -78,-3 -8,-10 -39,-57 -68,-105 -29,-49 -54,-88 -56,-88 -9,0 -33,61 -43,110 -20,95 -27,100 -135,100 -67,0 -96,-4 -99,-12 z"
                id="path28-2"
                style="fill:#e6a0ea;fill-opacity:1"/>
        <path
                d="m 8555.2288,4040.3732 c -33,-32 -32,-68 1,-94 33,-26 60,-26 102,-1 26,16 32,26 32,54 0,65 -86,91 -135,41 z"
                id="path30-0"
                style="fill:#e6a0ea;fill-opacity:1"/>
        <path
                id="path5330"
                style="color:#000000;fill:#62a0ea;fill-opacity:1;stroke-width:15.3989;-inkscape-stroke:none"
                d="m 1879.7769,4583.1475 c -1114.14826,-2.4737 -1128.82489,-3.9818 -1161.44524,-30.0293 -37.47557,-29.9178 -21.4332,-66.2588 9.15528,-92.1094 21.91443,-18.5292 75.6935,-22.154 321.76756,-21.7969 162.499,0.2283 301.2287,-11.0635 313.6377,-17.6953 12.4093,-6.6507 24.2629,-18.0364 20.9912,-32.7246 -5.1557,-23.1299 -28.177,-28.1235 -172.8662,-37.4121 -91.8048,-5.8983 -202.5909,-0.9049 -246.76758,-2.7246 -111.51885,-4.5612 -162.45323,-19.1912 -162.31935,-79.5411 0.0525,-22.7778 17.16307,-43.7897 28.66702,-50.0829 11.50373,-6.2744 95.90303,-22.0447 197.10941,-20.8741 183.5225,2.1291 196.4172,-2.4198 200.6689,-37.4853 2.1674,-17.8733 -5.7184,-29.7363 -18.8233,-33.0762 -77.3248,-19.6389 -248.51066,-14.7217 -248.51066,-14.7217 -137.86905,-4.2034 -253.71934,-17.4197 -265.19533,-23.7451 -11.47574,-6.3444 -27.14505,-29.0794 -27.08496,-56.1328 0.14355,-64.7012 38.71176,-76.7597 244.10157,-76.3037 125.80148,0.2797 160.20678,-4.0318 167.95898,-21.0792 19.128,-42.0702 -26.4697,-63.7441 -134.66311,-63.9843 -58.01625,-0.129 -112.0035,-7.7022 -123.25192,-17.2998 -25.86758,-22.0572 -25.62938,-85.9509 0.39525,-107.959 15.40162,-13.0197 213.95178,-15.7933 829.26268,-11.6309 l 809.0186,5.4639 281.1621,405 c 154.6379,222.7499 281.1771,412.9918 281.2061,422.7539 0.037,14.0187 -239.8958,17.1982 -1144.1749,15.1905 z M 459.99182,4466.4873 c -120.87155,-0.2684 -148.35954,-4.7372 -176.52832,-28.7695 -18.34906,-15.6486 -27.12581,-38.021 -27.09961,-49.7315 0.0262,-11.7105 8.90102,-34.0327 27.31934,-49.5996 28.27524,-23.8881 55.77396,-28.2469 176.6455,-27.9785 174.61668,0.3877 207.78718,12.9295 207.6416,78.501 -0.14557,65.5713 -33.36194,77.9658 -207.97851,77.5781 z M 2720.568,4443.123 2564.6646,4219.3096 c -85.7508,-123.1043 -174.8712,-251.0081 -198.0468,-284.2237 l -42.1436,-60.3955 -519.3017,-1.1572 -519.3018,-1.1573 47.7539,60.4248 c -47.7475,-60.4183 117.6152,158.4561 203.0127,278.3057 85.3979,119.8683 156.2256,229.6436 156.2256,229.6436 0,0 125.3999,-0.4841 232.0019,-2.4609 l 193.8282,-3.6036 -91.6113,-130.664 c -50.3815,-71.87 -90.7465,-106.2733 -61.6553,-141.416 15.9524,-19.2615 43.1342,-32.469 89.5019,-24.1554 63.2865,11.3213 81.2247,74.8349 137.2413,154.5118 l 104.8827,149.2236 211.7579,0.4688 z M 351.40295,4225.0224 c -188.80107,-0.4192 -237.09882,-4.6803 -258.413082,-22.8515 -33.758298,-28.7932 -33.19732,-61.1471 1.611328,-93.6475 24.199404,-22.6107 55.865954,-25.8304 249.550784,-25.4004 179.3844,0.3983 226.84509,4.7751 248.04199,22.8516 30.47332,25.986 42.62747,59.3292 8.75976,92.1533 -20.902,20.2722 -37.093,27.3663 -249.55078,26.8945 z m 167.05078,-240.8349 c -63.50739,-0.141 -118.80205,-7.489 -130.32715,-17.3145 -25.80414,-22.0027 -25.65253,-85.954 0.249,-107.8417 11.32647,-9.5667 65.5103,-16.8735 124.18946,-16.7433 113.7636,0.2528 156.5682,21.193 156.44531,76.5675 -0.1143,51.477 -32.63351,65.5938 -150.55664,65.332 z"
                sodipodi:nodetypes="sccccccccccscccsccsccccccssscscsssccccccccccccccccccsccsccsscccsss"/>
        <path
                style="fill:#62a0ea;fill-opacity:1;stroke-width:10.8364"
                d="m 92.990691,4202.1698 c -45.762268,601.8171 -22.881133,300.9085 0,0 z"
                id="path15928"
                sodipodi:nodetypes="cc"/>
        <path
                id="path38902"
                style="color:#000000;fill:url(#linearGradient38953);fill-opacity:1;stroke-width:15.3989;-inkscape-stroke:none"
                d="m 1695.8512,4587.7616 c -1114.14835,-2.4736 -1128.82497,-3.9818 -1161.44533,-30.0293 -37.47556,-29.9178 -21.43319,-66.2588 9.15527,-92.1094 21.91444,-18.5292 75.69352,-22.1539 321.76761,-21.7968 162.49905,0.2283 301.22875,-11.0636 313.63775,-17.6954 12.4093,-6.6507 24.2629,-18.0364 20.9912,-32.7246 -5.1557,-23.1299 -28.177,-28.1235 -172.8662,-37.4121 -91.8049,-5.8982 -202.59102,-0.9048 -246.76767,-2.7246 -111.51886,-4.5611 -162.45322,-19.1911 -162.31935,-79.541 0.0525,-22.7779 17.16308,-43.7897 28.66702,-50.083 11.50373,-6.2743 95.90302,-22.0446 197.10937,-20.874 183.52263,2.1291 196.41733,-2.4198 200.66903,-37.4853 2.1674,-17.8734 -5.7185,-29.7363 -18.8233,-33.0762 -77.3249,-19.6389 -248.51074,-14.7217 -248.51074,-14.7217 -137.86905,-4.2034 -253.71935,-17.4197 -265.19533,-23.7452 -11.47574,-6.3444 -27.14506,-29.0793 -27.08496,-56.1327 0.14355,-64.7013 38.71175,-76.7598 244.10155,-76.3038 125.80148,0.2798 160.20679,-4.0317 167.95899,-21.0791 19.12799,-42.0702 -26.46969,-63.7441 -134.6631,-63.9844 -58.01626,-0.129 -112.00351,-7.7022 -123.25194,-17.2998 -25.86757,-22.0572 -25.62937,-85.9509 0.39526,-107.9589 15.40162,-13.0197 213.95182,-15.7933 829.26277,-11.6309 l 809.0185,5.4639 281.1621,405 c 154.638,222.7499 281.1771,412.9918 281.2062,422.7539 0.037,14.0187 -239.8959,17.1981 -1144.1749,15.1904 z M 276.06604,4471.1014 c -120.87155,-0.2684 -148.35955,-4.7372 -176.52832,-28.7695 -18.34906,-15.6486 -27.12581,-38.0209 -27.09961,-49.7314 0.0263,-11.7105 8.90101,-34.0328 27.31934,-49.5996 28.27524,-23.8881 55.77395,-28.247 176.6455,-27.9785 174.61668,0.3877 207.78717,12.9294 207.6416,78.5009 -0.14558,65.5713 -33.36194,77.9659 -207.97851,77.5781 z m 2260.57616,-23.3642 -155.9033,-223.8134 c -85.7508,-123.1043 -174.8713,-251.0081 -198.0469,-284.2237 l -42.1435,-60.3955 -519.3017,-1.1572 -519.3018,-1.1573 47.7539,60.4248 c -47.7475,-60.4183 117.6151,158.4561 203.0127,278.3057 85.3979,119.8683 156.2256,229.6435 156.2256,229.6435 0,0 125.3999,-0.4841 232.0019,-2.4609 l 193.8281,-3.6035 -91.6113,-130.664 c -50.3814,-71.87 -90.7464,-106.2733 -61.6552,-141.4161 15.9523,-19.2615 43.1341,-32.469 89.5019,-24.1553 63.2865,11.3213 81.2247,74.8349 137.2412,154.5118 l 104.8828,149.2236 211.7579,0.4687 z M 167.47717,4229.6366 c -188.801075,-0.4193 -237.098815,-4.6803 -258.41308,-22.8515 -33.7583,-28.7932 -33.19732,-61.1471 1.61133,-93.6475 24.199403,-22.6107 55.865955,-25.8305 249.55077,-25.4004 179.38441,0.3982 226.84509,4.7751 248.042,22.8516 30.47332,25.986 42.62747,59.3292 8.75976,92.1533 -20.90201,20.2722 -37.09301,27.3662 -249.55078,26.8945 z m 167.05078,-240.8349 c -63.50739,-0.141 -118.80205,-7.489 -130.32715,-17.3145 -25.80415,-22.0027 -25.65253,-85.954 0.24901,-107.8418 11.32646,-9.5666 65.5103,-16.8734 124.18944,-16.7432 113.7636,0.2528 156.5682,21.193 156.44532,76.5674 -0.11429,51.4771 -32.63352,65.5938 -150.55664,65.3321 z"
                sodipodi:nodetypes="sccccccccccscccsccsccccccssscscsssccccccccccccccccccsccsccsscccsss"/>
        <path
                d="m 8677.2288,4518.3732 c -13,-26 -20,-59 -31,-153 -6,-47 -15,-116 -21,-154 -12,-83 -5,-96 56,-96 38,0 45,4 58,29 9,16 20,46 25,67 5,22 20,82 34,134 13,52 27,107 31,123 3,15 13,27 21,27 8,0 15,9 15,20 0,19 -7,20 -90,20 -75,0 -91,-3 -98,-17 z"
                id="path6"
                style="fill:#62a0ea;fill-opacity:1"/>
        <path
                d="m 3360.2286,4510.3732 c -5,-2 -28,-9 -51,-14 -53,-14 -127,-73 -159,-126 -49,-84 -69,-221 -44,-308 15,-56 63,-105 118,-120 37,-11 52,-22 77,-61 39,-59 72,-94 94,-101 16,-5 130,60 130,74 -1,15 -17,31 -43,40 -34,13 -36,47 -4,57 69,22 135,97 167,190 22,64 27,203 9,251 -17,46 -69,92 -123,108 -45,14 -145,19 -171,10 z m 101,-72 c 18,-24 17,-121 -1,-210 -43,-204 -127,-307 -163,-198 -10,31 -10,59 -2,132 16,133 54,233 104,275 27,22 45,22 62,1 z"
                id="path8"
                style="fill:#62a0ea;fill-opacity:1"/>
        <path
                d="m 3799.2286,4494.3732 c -16,-27 -67,-303 -71,-389 -4,-82 -2,-98 14,-116 36,-41 83,-57 173,-58 97,0 148,14 204,57 49,39 70,90 102,241 13,67 31,150 39,185 16,76 12,93 -24,89 -31,-4 -46,-31 -60,-113 -51,-289 -81,-368 -145,-380 -63,-12 -116,18 -116,65 0,29 49,274 71,351 20,74 14,79 -90,79 -55,0 -92,-4 -97,-11 z"
                id="path10"
                style="fill:#62a0ea;fill-opacity:1"/>
        <path
                d="m 4381.2286,4483.3732 c -8,-13 -19,-48 -25,-78 -17,-97 -70,-344 -81,-380 -5,-19 -10,-47 -10,-62 v -28 h 178 c 183,0 202,4 202,41 0,23 -20,29 -101,29 h -69 v 30 c 0,40 20,132 32,148 6,7 35,12 72,12 64,0 86,11 86,42 0,14 -11,18 -67,20 l -68,3 3,55 c 2,30 10,70 17,88 l 14,32 h 78 c 82,0 96,4 105,31 13,34 -12,39 -184,39 -163,0 -168,-1 -182,-22 z"
                id="path12"
                style="fill:#62a0ea;fill-opacity:1"/>
        <path
                d="m 4843.2286,4499.3732 c -11,-18 -29,-83 -37,-130 -5,-27 -25,-125 -46,-219 -20,-93 -38,-179 -38,-190 -2,-19 4,-20 173,-20 170.0002,0 176.0002,1 232.0002,27 57,28 111,83 140,143 27,54 41,179 28,238 -31,130 -66,149 -286,155 -89,2 -164.0002,0 -166.0002,-4 z m 257.0002,-71 c 15,-14 16,-29 10,-102 -15,-189 -80,-331 -152,-331 -34,0 -37,19 -18,102 9,40 23,105 31,143 18,83 44,187 51,198 8,13 61,7 78,-10 z"
                id="path14"
                style="fill:#62a0ea;fill-opacity:1"/>
        <path
                d="m 5442.2288,4498.3732 c -3,-5 -12,-42 -21,-83 -10,-41 -23,-102 -31,-135 -7,-33 -21,-96 -30,-140 -9,-44 -21,-96 -26,-116 -5,-20 -9,-48 -9,-63 v -26 h 180 c 171,0 180,1 190,21 20,36 -3,49 -86,49 -42,0 -76,5 -80,11 -3,6 1,37 9,68 9,31 19,68 22,84 5,26 7,27 73,27 74,0 88,6 94,35 3,18 -3,20 -65,23 -80,3 -85,9 -68,90 22,100 13,92 104,92 45,0 87,4 93,8 17,12 23,39 11,51 -13,13 -353,16 -360,4 z"
                id="path16"
                style="fill:#62a0ea;fill-opacity:1"/>
        <path
                d="m 5897.2288,4493.3732 c -6,-6 -12,-20 -12,-30 0,-18 -17,-100 -42,-198 -6,-25 -14,-65 -19,-90 -11,-64 -35,-171 -42,-195 -14,-43 -1,-46 189,-43 l 179,3 3,33 3,32 h -63 c -35,0 -74,3 -86,7 -21,5 -23,10 -17,37 4,17 11,49 15,71 4,22 22,108 40,190 46,209 51,189 -50,193 -58,2 -89,-1 -98,-10 z"
                id="path18"
                style="fill:#62a0ea;fill-opacity:1"/>
        <path
                d="m 6338.2288,4493.3732 c -6,-7 -16,-42 -23,-78 -6,-36 -16,-79 -21,-96 -5,-17 -14,-55 -19,-85 -5,-30 -21,-105 -34,-168 -14,-63 -23,-118 -20,-122 8,-13 172,-11 180,2 3,6 22,82 41,168 61,275 77,357 69,376 -7,20 -158,22 -173,3 z"
                id="path20"
                style="fill:#62a0ea;fill-opacity:1"/>
        <path
                d="m 6597.2288,4497.3732 c -10,-7 -9,-61 3,-276 8,-148 18,-272 21,-277 3,-5 50,-9 105,-9 h 99 l 70,146 c 39,80 70,147 70,149 0,1 27,60 61,130 63,133 65,149 13,143 -27,-3 -36,-17 -117,-182 -58,-116 -92,-175 -99,-168 -5,5 -14,58 -19,118 -6,60 -13,136 -17,169 l -7,60 -85,3 c -47,1 -91,-2 -98,-6 z"
                id="path22"
                style="fill:#62a0ea;fill-opacity:1"/>
        <path
                d="m 7161.2288,4489.3732 c -9,-8 -16,-28 -16,-42 0,-15 -5,-43 -11,-62 -5,-19 -14,-55 -19,-80 -4,-25 -22,-112 -39,-194 -18,-82 -29,-156 -27,-163 4,-11 42,-13 183,-11 l 178,3 v 30 30 l -72,3 c -40,2 -76,8 -81,15 -11,14 12,143 30,164 6,8 34,13 72,13 64,0 86,11 86,42 0,15 -9,18 -64,18 -36,0 -68,5 -71,11 -8,12 15,139 28,157 6,8 37,12 88,12 57,0 82,4 93,16 18,18 18,17 10,38 -9,24 -345,24 -368,0 z"
                id="path24"
                style="fill:#62a0ea;fill-opacity:1"/>
        <path
                d="m 7616.2288,4487.3732 c -6,-10 -15,-44 -20,-73 -5,-30 -14,-72 -19,-94 -6,-22 -18,-76 -27,-120 -9,-44 -23,-108 -31,-142 -17,-77 -18,-123 -1,-124 6,0 44,0 82,1 82,1 89,7 105,89 21,114 25,126 43,129 9,2 19,-2 21,-10 7,-28 38,-125 53,-165 l 15,-43 h 89 c 104,0 104,-1 63,101 -36,91 -54,142 -54,156 0,6 18,24 39,40 66,47 91,110 71,181 -8,30 -20,47 -48,64 -34,21 -51,23 -203,26 -158,4 -168,3 -178,-16 z m 250,-52 c 45,-24 8,-166 -50,-189 -43,-18 -65,-8 -57,27 3,15 11,52 17,82 6,30 15,63 20,72 11,20 41,23 70,8 z"
                id="path26"
                style="fill:#62a0ea;fill-opacity:1"/>
        <path
                d="m 8112.2288,4493.3732 c -2,-7 0,-24 6,-38 5,-14 13,-41 17,-60 4,-19 19,-80 34,-135 26,-96 26,-102 12,-160 -8,-33 -18,-84 -22,-112 l -7,-53 h 85 c 92,0 101,4 111,55 32,157 32,158 141,325 59,89 105,169 102,176 -8,20 -60,17 -78,-3 -8,-10 -39,-57 -68,-105 -29,-49 -54,-88 -56,-88 -9,0 -33,61 -43,110 -20,95 -27,100 -135,100 -67,0 -96,-4 -99,-12 z"
                id="path28"
                style="fill:#62a0ea;fill-opacity:1"/>
        <path
                d="m 8600.2288,4040.3732 c -33,-32 -32,-68 1,-94 33,-26 60,-26 102,-1 26,16 32,26 32,54 0,65 -86,91 -135,41 z"
                id="path30"
                style="fill:#62a0ea;fill-opacity:1"/>
    </g>
</svg>
